<?xml version="1.0" encoding="utf-8"?>
<!-- Generator: Adobe Illustrator 26.2.1, SVG Export Plug-In . SVG Version: 6.00 Build 0)  -->
<svg version="1.1" id="Ebene_1" xmlns="http://www.w3.org/2000/svg" xmlns:xlink="http://www.w3.org/1999/xlink" x="0px" y="0px"
	 viewBox="0 0 152.05 184.25" style="enable-background:new 0 0 152.05 184.25;" xml:space="preserve">
<style type="text/css">
	.st0{fill:#F6BDBA;}
	.st1{fill:#282828;}
</style>
<path class="st0" d="M38.21,148.57c-0.62-0.7-1.13-1.41-1.61-2.21C30.53,136.21-13.29,57.71,62.07,25.6
	c80.65-34.36,81.26,86.84,59.04,111.66C76.49,187.11,44.05,155.19,38.21,148.57"/>
<g>
	<g>
		<g>
			<circle class="st1" cx="58" cy="80.07" r="7.29"/>
		</g>
		<g>
			<circle class="st1" cx="95.89" cy="80.07" r="7.29"/>
		</g>
		<g>
			<path class="st1" d="M76.02,125.8c-14.46,0-27.61-8.54-33.49-21.77c-0.49-1.11,0.01-2.41,1.12-2.9c1.11-0.5,2.41,0,2.9,1.11
				c5.17,11.64,16.74,19.16,29.47,19.16c12.73,0,24.3-7.52,29.47-19.15c0.49-1.11,1.79-1.61,2.9-1.12c1.11,0.49,1.61,1.79,1.12,2.9
				C103.64,117.25,90.49,125.8,76.02,125.8z"/>
		</g>
	</g>
</g>
</svg>
