<?xml version="1.0" encoding="utf-8"?>
<!-- Generator: Adobe Illustrator 26.2.1, SVG Export Plug-In . SVG Version: 6.00 Build 0)  -->
<svg version="1.1" id="Ebene_1" xmlns="http://www.w3.org/2000/svg" xmlns:xlink="http://www.w3.org/1999/xlink" x="0px" y="0px"
	 viewBox="0 0 152.05 184.25" style="enable-background:new 0 0 152.05 184.25;" xml:space="preserve">
<style type="text/css">
	.st0{fill:#C48C95;}
	.st1{fill:#333333;stroke:#222323;stroke-miterlimit:10;}
</style>
<path class="st0" d="M52.76,155.88c-0.77-0.51-1.43-1.05-2.1-1.69c-8.39-8.11-70.29-71.6-6.77-121.56
	c67.97-53.44,99.71,61.82,84.93,91.17C99.12,182.75,60.02,160.69,52.76,155.88"/>
<g>
	<g>
		<g>
			<circle class="st1" cx="57.65" cy="70.29" r="7.14"/>
		</g>
		<g>
			<circle class="st1" cx="94.77" cy="70.29" r="7.14"/>
		</g>
		<g>
			<path class="st1" d="M75.3,119.43c-15.5,0-28.11-12.61-28.11-28.11v-2.16h56.22v2.16C103.42,106.82,90.81,119.43,75.3,119.43z
				 M51.6,93.48c1.09,12.12,11.31,21.64,23.7,21.64c12.4,0,22.61-9.53,23.7-21.64H51.6z"/>
		</g>
	</g>
</g>
</svg>
