<?xml version="1.0" encoding="utf-8"?>
<!-- Generator: Adobe Illustrator 26.2.1, SVG Export Plug-In . SVG Version: 6.00 Build 0)  -->
<svg version="1.1" id="Ebene_1" xmlns="http://www.w3.org/2000/svg" xmlns:xlink="http://www.w3.org/1999/xlink" x="0px" y="0px"
	 viewBox="0 0 152.05 184.25" style="enable-background:new 0 0 152.05 184.25;" xml:space="preserve">
<style type="text/css">
	.st0{fill:#F6A527;}
	.st1{fill:#282828;}
</style>
<path class="st0" d="M102.35,156.98c-0.83,0.19-1.61,0.28-2.45,0.29c-10.64,0.18-91.53-1.23-82.6-85.44
	C26.86-18.28,121.56,44,130.9,76.79C149.63,142.64,110.15,155.18,102.35,156.98"/>
<g>
	<g>
		<g>
			<circle class="st1" cx="56.34" cy="76.07" r="8.05"/>
		</g>
		<g>
			<circle class="st1" cx="98.2" cy="76.07" r="8.05"/>
		</g>
		<g>
			<path class="st1" d="M41.47,118.77c-0.33,0-0.67-0.07-0.99-0.21c-1.23-0.55-1.78-1.98-1.23-3.21c6.49-14.61,21.02-24.05,37-24.05
				c15.99,0,30.52,9.44,37,24.05c0.55,1.23,0,2.66-1.23,3.21c-1.21,0.54-2.66,0-3.21-1.23c-5.71-12.85-18.5-21.16-32.56-21.16
				c-14.06,0-26.85,8.31-32.56,21.16C43.28,118.23,42.4,118.77,41.47,118.77z"/>
		</g>
	</g>
</g>
</svg>
